<svg xmlns="http://www.w3.org/2000/svg" viewBox="0 0 13.22 12.93"><defs><style>.cls-1{fill:#478fcc;}.cls-2{fill:#fff;}</style></defs><title>Asset 2</title><g id="Layer_2" data-name="Layer 2"><g id="Layer_1-2" data-name="Layer 1"><ellipse class="cls-1" cx="4.78" cy="2.63" rx="1.67" ry="2.67" transform="translate(-0.44 1.05) rotate(-12)"/><ellipse class="cls-1" cx="1.88" cy="6.09" rx="1.69" ry="2.49" transform="translate(-2.52 1.48) rotate(-26.5)"/><ellipse class="cls-1" cx="11.37" cy="6.94" rx="2.41" ry="1.75" transform="translate(0.79 15.04) rotate(-68.82)"/><ellipse class="cls-1" cx="8.86" cy="2.85" rx="2.67" ry="1.79" transform="translate(4.31 10.97) rotate(-78.56)"/><path class="cls-1" d="M6.57,6.55s-1.5-.43-3.91,3.23,2,3.11,2,3.11a16.24,16.24,0,0,0,2-.43,2.2,2.2,0,0,1,1.6.34s2.62.83,2.43-1.62S7.15,6.35,6.57,6.55Z"/><polygon class="cls-2" points="8.23 12.32 6.5 11.42 4.77 12.33 5.1 10.4 3.69 9.04 5.63 8.75 6.49 6.99 7.36 8.75 9.3 9.03 7.9 10.39 8.23 12.32"/></g></g></svg>